<svg width="30" height="30" viewBox="0 0 30 30" fill="none" xmlns="http://www.w3.org/2000/svg">
<path d="M20.0957 8H10.9043C9.85435 8 9 8.85435 9 9.9043V19.0957C9 20.1456 9.85435 21 10.9043 21H20.0957C21.1456 21 22 20.1456 22 19.0957V9.9043C22 8.85435 21.1456 8 20.0957 8ZM15.5254 17.9023C13.6353 17.9023 12.0977 16.3647 12.0977 14.4746C12.0977 12.5845 13.6353 11.0469 15.5254 11.0469C17.4155 11.0469 18.9531 12.5845 18.9531 14.4746C18.9531 16.3647 17.4155 17.9023 15.5254 17.9023ZM19.334 11.8086C18.704 11.8086 18.1914 11.296 18.1914 10.666C18.1914 10.036 18.704 9.52344 19.334 9.52344C19.964 9.52344 20.4766 10.036 20.4766 10.666C20.4766 11.296 19.964 11.8086 19.334 11.8086Z" fill="#2F80ED"/>
<path d="M19.3238 10.2941C19.1128 10.2941 18.9414 10.4654 18.9414 10.6764C18.9414 10.8874 19.1128 11.0588 19.3238 11.0588C19.5348 11.0588 19.7061 10.8874 19.7061 10.6764C19.7061 10.4654 19.5348 10.2941 19.3238 10.2941Z" fill="#2F80ED"/>
<path d="M15.5 12C14.1217 12 13 13.1217 13 14.5C13 15.8783 14.1217 17 15.5 17C16.8783 17 18 15.8783 18 14.5C18 13.1217 16.8783 12 15.5 12Z" fill="#2F80ED"/>
</svg>
