<svg width="30" height="30" viewBox="0 0 30 30" fill="none" xmlns="http://www.w3.org/2000/svg">
<path d="M22.8574 18.1427C22.8144 18.0707 22.5484 17.4926 21.2683 16.3045C19.9282 15.0605 20.1082 15.2625 21.7223 13.1113C22.7054 11.8012 23.0984 11.0012 22.9754 10.6591C22.8584 10.3331 22.1353 10.4191 22.1353 10.4191L19.7312 10.4331C19.7312 10.4331 19.5531 10.4091 19.4201 10.4881C19.2911 10.5661 19.2081 10.7461 19.2081 10.7461C19.2081 10.7461 18.8271 11.7602 18.3191 12.6223C17.248 14.4414 16.8189 14.5374 16.6439 14.4244C16.2369 14.1614 16.3389 13.3663 16.3389 12.8023C16.3389 11.0392 16.6059 10.3041 15.8179 10.1141C15.5559 10.0511 15.3638 10.0091 14.6948 10.0021C13.8367 9.99308 13.1097 10.0051 12.6986 10.2061C12.4246 10.3401 12.2136 10.6391 12.3426 10.6561C12.5016 10.6771 12.8617 10.7531 13.0527 11.0132C13.2997 11.3482 13.2907 12.1022 13.2907 12.1022C13.2907 12.1022 13.4327 14.1774 12.9597 14.4354C12.6346 14.6124 12.1896 14.2514 11.2345 12.6003C10.7455 11.7552 10.3755 10.8201 10.3755 10.8201C10.3755 10.8201 10.3045 10.6461 10.1775 10.5531C10.0234 10.4401 9.80743 10.4041 9.80743 10.4041L7.52126 10.4181C7.52126 10.4181 7.17824 10.4281 7.05223 10.5771C6.94022 10.7101 7.04323 10.9842 7.04323 10.9842C7.04323 10.9842 8.83336 15.1715 10.8595 17.2826C12.7186 19.2178 14.8288 19.0908 14.8288 19.0908H15.7849C15.7849 19.0908 16.0739 19.0588 16.2209 18.8997C16.3569 18.7537 16.3519 18.4797 16.3519 18.4797C16.3519 18.4797 16.3329 17.1966 16.929 17.0076C17.516 16.8216 18.2701 18.2477 19.0691 18.7967C19.6732 19.2118 20.1322 19.1208 20.1322 19.1208L22.2693 19.0908C22.2693 19.0908 23.3874 19.0217 22.8574 18.1427Z" fill="#2F80ED"/>
</svg>
