<svg width="30" height="30" viewBox="0 0 30 30" fill="none" xmlns="http://www.w3.org/2000/svg">
<path d="M22.32 11.06C21.886 10.288 21.415 10.146 20.456 10.092C19.498 10.027 17.089 10 15.002 10C12.911 10 10.501 10.027 9.544 10.091C8.587 10.146 8.115 10.287 7.677 11.06C7.23 11.831 7 13.159 7 15.497C7 15.499 7 15.5 7 15.5C7 15.502 7 15.503 7 15.503V15.505C7 17.833 7.23 19.171 7.677 19.934C8.115 20.706 8.586 20.846 9.543 20.911C10.501 20.967 12.911 21 15.002 21C17.089 21 19.498 20.967 20.457 20.912C21.416 20.847 21.887 20.707 22.321 19.935C22.772 19.172 23 17.834 23 15.506C23 15.506 23 15.503 23 15.501C23 15.501 23 15.499 23 15.498C23 13.159 22.772 11.831 22.32 11.06ZM13 18.5V12.5L18 15.5L13 18.5Z" fill="#2F80ED"/>
</svg>
